<?xml version="1.0" standalone="no"?>
<!DOCTYPE svg PUBLIC "-//W3C//DTD SVG 20010904//EN"
 "http://www.w3.org/TR/2001/REC-SVG-20010904/DTD/svg10.dtd">
<svg version="1.0" xmlns="http://www.w3.org/2000/svg"
 width="96.000000pt" height="96.000000pt" viewBox="0 0 96.000000 96.000000"
 preserveAspectRatio="xMidYMid meet">
<metadata>
Created by potrace 1.11, written by Peter Selinger 2001-2013
</metadata>
<g transform="translate(0.000000,96.000000) scale(0.100000,-0.100000)"
fill="#000000" stroke="none">
<path d="M438 947 c-9 -7 -92 -59 -185 -115 -137 -83 -176 -102 -211 -104
l-42 -1 0 -256 0 -256 53 -1 c47 -1 70 -11 239 -107 103 -59 192 -107 197
-107 5 0 90 50 190 111 144 88 188 110 214 108 73 -5 67 -27 67 256 l0 255
-35 -3 c-21 -3 -39 1 -46 9 -6 8 -15 14 -19 14 -4 0 -91 47 -193 105 -103 58
-192 105 -199 105 -7 0 -21 -6 -30 -13z"/>
</g>
</svg>
